<svg xmlns="http://www.w3.org/2000/svg" width="410" height="404" viewBox="0 0 410 404" fill="none">
  <path d="M399.641 59.5246L215.643 388.545C211.844 395.338 202.084 395.378 198.228 388.618L10.5817 59.5563C6.38087 52.1896 12.6802 43.2665 21.0281 44.7586L205.223 77.6824C206.398 77.8924 207.601 77.8904 208.776 77.6763L389.119 44.8058C397.439 43.2894 403.768 52.1433 399.641 59.5246Z" fill="url(#paint0_linear)"/>
  <path d="M292.965 1.5744L156.801 28.2552C154.563 28.6937 152.905 30.5903 152.771 32.8701L144.395 174.033C144.198 177.504 147.258 180.247 150.688 179.498L188.42 171.116C191.976 170.337 195.165 173.187 194.829 176.82L189.33 236.793C188.985 240.483 192.356 243.349 195.934 242.362L214.637 237.281C218.227 236.291 221.603 239.174 221.234 242.871L212.163 335.286C211.759 339.42 217.216 341.508 219.171 337.829L220.437 335.386L322.231 103.59C323.823 99.9964 321.01 96.0351 317.149 96.8154L278.461 104.48C274.829 105.214 271.76 101.91 272.663 98.3487L301.74 10.2477C302.819 6.67567 299.445 3.28406 295.828 4.05411Z" fill="url(#paint1_linear)"/>
  <defs>
    <linearGradient id="paint0_linear" x1="6.00017" y1="32.9999" x2="235" y2="344" gradientUnits="userSpaceOnUse">
      <stop stop-color="#41D1FF"/>
      <stop offset="1" stop-color="#BD34FE"/>
    </linearGradient>
    <linearGradient id="paint1_linear" x1="194.651" y1="8.81818" x2="236.076" y2="292.989" gradientUnits="userSpaceOnUse">
      <stop stop-color="#FFEA83"/>
      <stop offset="0.0833333" stop-color="#FFDD35"/>
      <stop offset="1" stop-color="#FFA800"/>
    </linearGradient>
  </defs>
</svg>
